<svg width="244" height="54" viewBox="0 0 244 54" fill="none" xmlns="http://www.w3.org/2000/svg">
<rect width="244" height="54" rx="27" fill="#D3E97A"/>
<path d="M25.12 33V21.48H28.792C28.888 21.48 29.0773 21.4827 29.36 21.488C29.648 21.4933 29.9253 21.512 30.192 21.544C31.104 21.6613 31.8747 21.9867 32.504 22.52C33.1387 23.048 33.6187 23.7227 33.944 24.544C34.2693 25.3653 34.432 26.264 34.432 27.24C34.432 28.216 34.2693 29.1147 33.944 29.936C33.6187 30.7573 33.1387 31.4347 32.504 31.968C31.8747 32.496 31.104 32.8187 30.192 32.936C29.9307 32.968 29.656 32.9867 29.368 32.992C29.08 32.9973 28.888 33 28.792 33H25.12ZM27.08 31.184H28.792C28.952 31.184 29.1547 31.1787 29.4 31.168C29.6507 31.1573 29.872 31.1333 30.064 31.096C30.608 30.9947 31.0507 30.752 31.392 30.368C31.7333 29.984 31.984 29.5173 32.144 28.968C32.3093 28.4187 32.392 27.8427 32.392 27.24C32.392 26.616 32.3093 26.0293 32.144 25.48C31.9787 24.9307 31.7227 24.4693 31.376 24.096C31.0347 23.7227 30.5973 23.4853 30.064 23.384C29.872 23.3413 29.6507 23.3173 29.4 23.312C29.1547 23.3013 28.952 23.296 28.792 23.296H27.08V31.184ZM41.1951 33.24C40.0431 33.24 39.0565 32.9893 38.2351 32.488C37.4138 31.9813 36.7818 31.2773 36.3391 30.376C35.9018 29.4747 35.6831 28.4293 35.6831 27.24C35.6831 26.0507 35.9018 25.0053 36.3391 24.104C36.7818 23.2027 37.4138 22.5013 38.2351 22C39.0565 21.4933 40.0431 21.24 41.1951 21.24C42.3471 21.24 43.3338 21.4933 44.1551 22C44.9818 22.5013 45.6138 23.2027 46.0511 24.104C46.4938 25.0053 46.7151 26.0507 46.7151 27.24C46.7151 28.4293 46.4938 29.4747 46.0511 30.376C45.6138 31.2773 44.9818 31.9813 44.1551 32.488C43.3338 32.9893 42.3471 33.24 41.1951 33.24ZM41.1951 31.424C41.9685 31.4293 42.6111 31.2587 43.1231 30.912C43.6405 30.5653 44.0271 30.0773 44.2831 29.448C44.5445 28.8187 44.6751 28.0827 44.6751 27.24C44.6751 26.3973 44.5445 25.6667 44.2831 25.048C44.0271 24.424 43.6405 23.9387 43.1231 23.592C42.6111 23.2453 41.9685 23.0667 41.1951 23.056C40.4218 23.0507 39.7791 23.2213 39.2671 23.568C38.7551 23.9147 38.3685 24.4027 38.1071 25.032C37.8511 25.6613 37.7231 26.3973 37.7231 27.24C37.7231 28.0827 37.8511 28.816 38.1071 29.44C38.3631 30.0587 38.7471 30.5413 39.2591 30.888C39.7765 31.2347 40.4218 31.4133 41.1951 31.424ZM50.2551 33L46.8871 21.48H48.9111L51.2071 29.8L53.4951 21.496L55.5191 21.48L57.8151 29.8L60.1031 21.48H62.1271L58.7671 33H56.8631L54.5031 24.808L52.1591 33H50.2551ZM63.4325 33V21.48H65.3845L70.7285 29.6V21.48H72.6805V33H70.7285L65.3845 24.88V33H63.4325ZM75.0769 33V21.48H77.0049V31.192H82.0929V33H75.0769ZM88.0076 33.24C86.8556 33.24 85.869 32.9893 85.0476 32.488C84.2263 31.9813 83.5943 31.2773 83.1516 30.376C82.7143 29.4747 82.4956 28.4293 82.4956 27.24C82.4956 26.0507 82.7143 25.0053 83.1516 24.104C83.5943 23.2027 84.2263 22.5013 85.0476 22C85.869 21.4933 86.8556 21.24 88.0076 21.24C89.1596 21.24 90.1463 21.4933 90.9676 22C91.7943 22.5013 92.4263 23.2027 92.8636 24.104C93.3063 25.0053 93.5276 26.0507 93.5276 27.24C93.5276 28.4293 93.3063 29.4747 92.8636 30.376C92.4263 31.2773 91.7943 31.9813 90.9676 32.488C90.1463 32.9893 89.1596 33.24 88.0076 33.24ZM88.0076 31.424C88.781 31.4293 89.4236 31.2587 89.9356 30.912C90.453 30.5653 90.8396 30.0773 91.0956 29.448C91.357 28.8187 91.4876 28.0827 91.4876 27.24C91.4876 26.3973 91.357 25.6667 91.0956 25.048C90.8396 24.424 90.453 23.9387 89.9356 23.592C89.4236 23.2453 88.781 23.0667 88.0076 23.056C87.2343 23.0507 86.5916 23.2213 86.0796 23.568C85.5676 23.9147 85.181 24.4027 84.9196 25.032C84.6636 25.6613 84.5356 26.3973 84.5356 27.24C84.5356 28.0827 84.6636 28.816 84.9196 29.44C85.1756 30.0587 85.5596 30.5413 86.0716 30.888C86.589 31.2347 87.2343 31.4133 88.0076 31.424ZM94.0075 33L97.6395 21.48H100.464L104.096 33H102.112L98.8155 22.664H99.2475L95.9915 33H94.0075ZM96.0315 30.504V28.704H102.08V30.504H96.0315ZM105.542 33V21.48H109.214C109.31 21.48 109.499 21.4827 109.782 21.488C110.07 21.4933 110.347 21.512 110.614 21.544C111.526 21.6613 112.297 21.9867 112.926 22.52C113.561 23.048 114.041 23.7227 114.366 24.544C114.691 25.3653 114.854 26.264 114.854 27.24C114.854 28.216 114.691 29.1147 114.366 29.936C114.041 30.7573 113.561 31.4347 112.926 31.968C112.297 32.496 111.526 32.8187 110.614 32.936C110.353 32.968 110.078 32.9867 109.79 32.992C109.502 32.9973 109.31 33 109.214 33H105.542ZM107.502 31.184H109.214C109.374 31.184 109.577 31.1787 109.822 31.168C110.073 31.1573 110.294 31.1333 110.486 31.096C111.03 30.9947 111.473 30.752 111.814 30.368C112.155 29.984 112.406 29.5173 112.566 28.968C112.731 28.4187 112.814 27.8427 112.814 27.24C112.814 26.616 112.731 26.0293 112.566 25.48C112.401 24.9307 112.145 24.4693 111.798 24.096C111.457 23.7227 111.019 23.4853 110.486 23.384C110.294 23.3413 110.073 23.3173 109.822 23.312C109.577 23.3013 109.374 23.296 109.214 23.296H107.502V31.184ZM119.948 33V21.48H124.708C124.82 21.48 124.964 21.4853 125.14 21.496C125.316 21.5013 125.479 21.5173 125.628 21.544C126.295 21.6453 126.844 21.8667 127.276 22.208C127.713 22.5493 128.036 22.9813 128.244 23.504C128.457 24.0213 128.564 24.5973 128.564 25.232C128.564 26.1707 128.327 26.9787 127.852 27.656C127.377 28.328 126.649 28.744 125.668 28.904L124.844 28.976H121.876V33H119.948ZM126.564 33L124.292 28.312L126.252 27.88L128.748 33H126.564ZM121.876 27.176H124.628C124.735 27.176 124.855 27.1707 124.988 27.16C125.121 27.1493 125.244 27.128 125.356 27.096C125.676 27.016 125.927 26.8747 126.108 26.672C126.295 26.4693 126.425 26.24 126.5 25.984C126.58 25.728 126.62 25.4773 126.62 25.232C126.62 24.9867 126.58 24.736 126.5 24.48C126.425 24.2187 126.295 23.9867 126.108 23.784C125.927 23.5813 125.676 23.44 125.356 23.36C125.244 23.328 125.121 23.3093 124.988 23.304C124.855 23.2933 124.735 23.288 124.628 23.288H121.876V27.176ZM130.511 33V21.48H137.951V23.288H132.439V26.128H136.991V27.936H132.439V31.192H137.951V33H130.511ZM144.025 33.24C143.182 33.24 142.422 33.0933 141.745 32.8C141.073 32.5067 140.518 32.088 140.081 31.544C139.649 30.9947 139.374 30.344 139.257 29.592L141.257 29.288C141.427 29.9707 141.777 30.4987 142.305 30.872C142.838 31.2453 143.451 31.432 144.145 31.432C144.555 31.432 144.942 31.368 145.305 31.24C145.667 31.112 145.961 30.9253 146.185 30.68C146.414 30.4347 146.529 30.1333 146.529 29.776C146.529 29.616 146.502 29.4693 146.449 29.336C146.395 29.1973 146.315 29.0747 146.209 28.968C146.107 28.8613 145.974 28.7653 145.809 28.68C145.649 28.5893 145.462 28.512 145.249 28.448L142.273 27.568C142.017 27.4933 141.739 27.3947 141.441 27.272C141.147 27.144 140.867 26.9707 140.601 26.752C140.339 26.528 140.123 26.2453 139.953 25.904C139.787 25.5573 139.705 25.1307 139.705 24.624C139.705 23.8827 139.891 23.2613 140.265 22.76C140.643 22.2533 141.15 21.8747 141.785 21.624C142.425 21.3733 143.134 21.2507 143.913 21.256C144.702 21.2613 145.406 21.3973 146.025 21.664C146.643 21.9253 147.161 22.3067 147.577 22.808C147.993 23.3093 148.286 23.9147 148.457 24.624L146.385 24.984C146.299 24.5787 146.134 24.2347 145.889 23.952C145.649 23.664 145.353 23.4453 145.001 23.296C144.654 23.1467 144.283 23.0667 143.889 23.056C143.505 23.0507 143.147 23.1093 142.817 23.232C142.491 23.3493 142.227 23.52 142.025 23.744C141.827 23.968 141.729 24.2293 141.729 24.528C141.729 24.8107 141.814 25.0427 141.985 25.224C142.155 25.4 142.366 25.5413 142.617 25.648C142.873 25.7493 143.131 25.8347 143.393 25.904L145.457 26.48C145.739 26.5547 146.057 26.656 146.409 26.784C146.761 26.912 147.099 27.0907 147.425 27.32C147.75 27.5493 148.017 27.8507 148.225 28.224C148.438 28.5973 148.545 29.072 148.545 29.648C148.545 30.2453 148.419 30.7707 148.169 31.224C147.923 31.672 147.59 32.0453 147.169 32.344C146.747 32.6427 146.265 32.8667 145.721 33.016C145.182 33.1653 144.617 33.24 144.025 33.24ZM154.916 33.24C153.999 33.24 153.191 33.0533 152.492 32.68C151.799 32.3067 151.255 31.7813 150.86 31.104C150.471 30.4267 150.276 29.632 150.276 28.72V21.496L152.228 21.48V28.672C152.228 29.104 152.3 29.4907 152.444 29.832C152.594 30.1733 152.794 30.464 153.044 30.704C153.295 30.9387 153.583 31.1173 153.908 31.24C154.234 31.3627 154.57 31.424 154.916 31.424C155.274 31.424 155.612 31.3627 155.932 31.24C156.258 31.112 156.546 30.9307 156.796 30.696C157.047 30.456 157.244 30.1653 157.388 29.824C157.532 29.4827 157.604 29.0987 157.604 28.672V21.48H159.556V28.72C159.556 29.632 159.359 30.4267 158.964 31.104C158.575 31.7813 158.031 32.3067 157.332 32.68C156.639 33.0533 155.834 33.24 154.916 33.24ZM161.792 33V21.48H163.528L167.512 29.64L171.496 21.48H173.232V33H171.432V25.616L167.896 33H167.128L163.6 25.616V33H161.792ZM175.479 33V21.48H182.919V23.288H177.407V26.128H181.959V27.936H177.407V31.192H182.919V33H175.479Z" fill="#0A0A0A"/>
<circle cx="217" cy="27" r="5" fill="#0A0A0A"/>
</svg>
